<svg width="20" height="18" viewBox="0 0 20 18" fill="none" xmlns="http://www.w3.org/2000/svg">
<path d="M2.045 5.81507C2.27941 5.6091 2.59729 5.4934 2.92875 5.4934C3.2602 5.4934 3.57809 5.6091 3.8125 5.81507L10 11.2533L16.1875 5.81507C16.4233 5.61494 16.739 5.5042 17.0668 5.50671C17.3945 5.50921 17.708 5.62475 17.9398 5.82845C18.1715 6.03214 18.303 6.30769 18.3058 6.59575C18.3087 6.88381 18.1827 7.16133 17.955 7.36853L10.8837 13.5835C10.6493 13.7895 10.3315 13.9052 10 13.9052C9.66854 13.9052 9.35066 13.7895 9.11625 13.5835L2.045 7.36853C1.81066 7.16251 1.67902 6.88312 1.67902 6.5918C1.67902 6.30048 1.81066 6.02109 2.045 5.81507Z" fill="#757575"/>
</svg>
