<svg width="50" height="50" viewBox="0 0 50 50" fill="none" xmlns="http://www.w3.org/2000/svg">
<path d="M40.2292 39.375C41.1459 37.9375 41.6667 36.2083 41.6667 34.375C41.6667 29.1667 37.5 25 32.2917 25C27.0834 25 22.9167 29.1667 22.9167 34.375C22.9167 39.5833 27.0834 43.75 32.2917 43.75C34.1042 43.75 35.8125 43.2292 37.25 42.3333L43.75 48.7292L46.6459 45.8333L40.2292 39.375ZM32.2917 39.5833C30.9104 39.5833 29.5856 39.0346 28.6088 38.0578C27.6321 37.0811 27.0834 35.7563 27.0834 34.375C27.0834 32.9937 27.6321 31.6689 28.6088 30.6922C29.5856 29.7154 30.9104 29.1667 32.2917 29.1667C33.673 29.1667 34.9978 29.7154 35.9745 30.6922C36.9513 31.6689 37.5 32.9937 37.5 34.375C37.5 35.7563 36.9513 37.0811 35.9745 38.0578C34.9978 39.0346 33.673 39.5833 32.2917 39.5833ZM10.4167 41.6667V25H4.16669L25 6.25L45.8334 25H42.0417C39.5834 22.4375 36.125 20.8333 32.2917 20.8333C24.8334 20.8333 18.75 26.9167 18.75 34.375C18.75 37.0625 19.5417 39.5833 20.8959 41.6667H10.4167Z" fill="#2C2C2E"/>
</svg>
