<svg width="20" height="20" viewBox="0 0 20 20" fill="none" xmlns="http://www.w3.org/2000/svg">
<path d="M2.50079 17.5V5.83333H5.83413V2.5H14.1675V9.16667H17.5008V17.5H10.8341V14.1667H9.16746V17.5H2.50079ZM4.16746 15.8333H5.83413V14.1667H4.16746V15.8333ZM4.16746 12.5H5.83413V10.8333H4.16746V12.5ZM4.16746 9.16667H5.83413V7.5H4.16746V9.16667ZM7.50079 12.5H9.16746V10.8333H7.50079V12.5ZM7.50079 9.16667H9.16746V7.5H7.50079V9.16667ZM7.50079 5.83333H9.16746V4.16667H7.50079V5.83333ZM10.8341 12.5H12.5008V10.8333H10.8341V12.5ZM10.8341 9.16667H12.5008V7.5H10.8341V9.16667ZM10.8341 5.83333H12.5008V4.16667H10.8341V5.83333ZM14.1675 15.8333H15.8341V14.1667H14.1675V15.8333ZM14.1675 12.5H15.8341V10.8333H14.1675V12.5Z" fill="black"/>
</svg>
