<svg width="20" height="20" viewBox="0 0 20 20" fill="none" xmlns="http://www.w3.org/2000/svg">
<path d="M8.23546 1.568C8.17321 1.5058 8.0888 1.47086 8.00079 1.47086C7.91279 1.47086 7.82838 1.5058 7.76613 1.568L1.89946 7.43467C1.85415 7.4814 1.82351 7.54038 1.81133 7.60432C1.79915 7.66827 1.80596 7.73438 1.83091 7.79449C1.85587 7.85461 1.89788 7.90611 1.95176 7.94263C2.00564 7.97915 2.06904 7.9991 2.13413 8H4.00079V17.0013C4.00114 17.0893 4.03624 17.1735 4.09842 17.2357C4.16061 17.2979 4.24485 17.333 4.33279 17.3333H8.99946C9.04311 17.3339 9.08643 17.3257 9.12692 17.3095C9.16742 17.2932 9.20428 17.269 9.23539 17.2384C9.26651 17.2078 9.29125 17.1713 9.30819 17.1311C9.32514 17.0908 9.33395 17.0477 9.33413 17.004V7.09734C9.33413 7.00934 9.36879 6.924 9.43146 6.86267L11.3341 4.66667L8.23546 1.568ZM8.00079 14.6667H6.66746V13.3333H8.00079V14.6667ZM8.00079 12H6.66746V10.6667H8.00079V12ZM8.00079 8V9.33334H6.66746V8H8.00079ZM17.0008 4H16.3341C16.2457 4 16.1609 4.03512 16.0984 4.09763C16.0359 4.16015 16.0008 4.24493 16.0008 4.33334V6.66667L14.2355 4.23467C14.1732 4.17247 14.0888 4.13752 14.0008 4.13752C13.9128 4.13752 13.8284 4.17247 13.7661 4.23467L10.7421 7.90934C10.6939 7.96795 10.6675 8.04145 10.6675 8.11734V16.9973C10.6669 17.0409 10.675 17.0842 10.6912 17.1247C10.7074 17.1652 10.7314 17.2021 10.7619 17.2333C10.7923 17.2645 10.8286 17.2894 10.8687 17.3065C10.9088 17.3237 10.9519 17.3328 10.9955 17.3333H12.9955C13.0398 17.3335 13.0837 17.325 13.1247 17.3082C13.1656 17.2914 13.2029 17.2667 13.2344 17.2355C13.2658 17.2043 13.2908 17.1672 13.3079 17.1263C13.3251 17.0855 13.334 17.0416 13.3341 16.9973V14.6667H14.6675V16.996C14.6675 17.0855 14.703 17.1713 14.7663 17.2345C14.8295 17.2978 14.9153 17.3333 15.0048 17.3333H17.0048C17.0923 17.3323 17.1758 17.2969 17.2374 17.2348C17.2991 17.1727 17.3338 17.0888 17.3341 17.0013V4.33334C17.3341 4.24493 17.299 4.16015 17.2365 4.09763C17.174 4.03512 17.0892 4 17.0008 4ZM13.3341 10.6667H12.0008V9.33334H13.3341V10.6667ZM16.0008 10.6667H14.6675V9.33334H16.0008V10.6667ZM13.3341 13.3333H12.0008V12H13.3341V13.3333ZM16.0008 13.3333H14.6675V12H16.0008V13.3333Z" fill="black"/>
</svg>
