<svg width="20" height="20" viewBox="0 0 20 20" fill="none" xmlns="http://www.w3.org/2000/svg">
<g clip-path="url(#clip0_16_55)">
<path d="M10.218 3.95625C10.1598 3.90062 10.0824 3.86957 10.002 3.86957C9.92149 3.86957 9.84411 3.90062 9.78595 3.95625L2.59454 10.8262C2.564 10.8554 2.5397 10.8905 2.52312 10.9294C2.50654 10.9682 2.49801 11.0101 2.49806 11.0523L2.49689 17.5C2.49689 17.8315 2.62858 18.1495 2.863 18.3839C3.09742 18.6183 3.41537 18.75 3.74689 18.75H7.50079C7.66655 18.75 7.82552 18.6842 7.94274 18.5669C8.05995 18.4497 8.12579 18.2908 8.12579 18.125V12.8125C8.12579 12.7296 8.15872 12.6501 8.21732 12.5915C8.27593 12.5329 8.35541 12.5 8.43829 12.5H11.5633C11.6462 12.5 11.7257 12.5329 11.7843 12.5915C11.8429 12.6501 11.8758 12.7296 11.8758 12.8125V18.125C11.8758 18.2908 11.9416 18.4497 12.0589 18.5669C12.1761 18.6842 12.335 18.75 12.5008 18.75H16.2531C16.5847 18.75 16.9026 18.6183 17.137 18.3839C17.3714 18.1495 17.5031 17.8315 17.5031 17.5V11.0523C17.5032 11.0101 17.4947 10.9682 17.4781 10.9294C17.4615 10.8905 17.4372 10.8554 17.4067 10.8262L10.218 3.95625Z" fill="black"/>
<path d="M19.177 9.53711L16.2551 6.7418V2.5C16.2551 2.33424 16.1892 2.17527 16.072 2.05806C15.9548 1.94085 15.7958 1.875 15.6301 1.875H13.7551C13.5893 1.875 13.4304 1.94085 13.3131 2.05806C13.1959 2.17527 13.1301 2.33424 13.1301 2.5V3.75L10.8676 1.58672C10.6559 1.37266 10.341 1.25 10.0008 1.25C9.66173 1.25 9.34767 1.37266 9.13595 1.58711L0.827356 9.53633C0.584387 9.7707 0.553918 10.1562 0.775012 10.4102C0.830532 10.4742 0.898512 10.5264 0.974816 10.5633C1.05112 10.6003 1.13415 10.6214 1.21886 10.6253C1.30356 10.6291 1.38817 10.6157 1.46753 10.5859C1.54689 10.556 1.61934 10.5103 1.68048 10.4516L9.78595 2.70625C9.84411 2.65062 9.92148 2.61957 10.002 2.61957C10.0824 2.61957 10.1598 2.65062 10.218 2.70625L18.3242 10.4516C18.4436 10.5661 18.6036 10.6286 18.769 10.6253C18.9344 10.6221 19.0918 10.5534 19.2067 10.4344C19.4465 10.1859 19.4266 9.77578 19.177 9.53711Z" fill="black"/>
</g>
<defs>
<clipPath id="clip0_16_55">
<rect width="20" height="20" fill="white" transform="translate(0.000793457)"/>
</clipPath>
</defs>
</svg>
