<svg width="20" height="20" viewBox="0 0 20 20" fill="none" xmlns="http://www.w3.org/2000/svg">
<path d="M10 15L6.19375 9.625C5.57074 8.88942 5.16953 7.99197 5.03685 7.03718C4.90417 6.08239 5.04548 5.10956 5.44432 4.23197C5.84316 3.35439 6.48312 2.60818 7.28966 2.08024C8.09621 1.55231 9.03614 1.26439 10 1.25C11.3361 1.2632 12.6125 1.80537 13.5497 2.75776C14.4868 3.71015 15.0083 4.99512 15 6.33125C15.0005 7.49683 14.6037 8.62778 13.875 9.5375L10 15ZM10 2.5C8.99491 2.51154 8.03548 2.92149 7.33238 3.63982C6.62929 4.35815 6.24 5.32614 6.25 6.33125C6.25419 7.24864 6.58424 8.13469 7.18125 8.83125L10 12.825L12.8938 8.75C13.4438 8.0634 13.7456 7.211 13.75 6.33125C13.76 5.32614 13.3707 4.35815 12.6676 3.63982C11.9645 2.92149 11.0051 2.51154 10 2.5Z" fill="#757575"/>
<path d="M10 6.875C10.6904 6.875 11.25 6.31536 11.25 5.625C11.25 4.93464 10.6904 4.375 10 4.375C9.30964 4.375 8.75 4.93464 8.75 5.625C8.75 6.31536 9.30964 6.875 10 6.875Z" fill="#757575"/>
</svg>
