<svg width="20" height="18" viewBox="0 0 20 18" fill="none" xmlns="http://www.w3.org/2000/svg">
<path d="M16.6667 2.92969H3.33334C2.40834 2.92969 1.67501 3.58154 1.67501 4.39453L1.66667 13.1836C1.66667 13.9966 2.40834 14.6484 3.33334 14.6484H16.6667C17.5917 14.6484 18.3333 13.9966 18.3333 13.1836V4.39453C18.3333 3.58154 17.5917 2.92969 16.6667 2.92969ZM9.16667 7.32422H6.66667V8.05664H9.16667C9.625 8.05664 10 8.38623 10 8.78906V10.9863C10 11.3892 9.625 11.7188 9.16667 11.7188H8.33334C8.33334 12.1216 7.95834 12.4512 7.5 12.4512C7.04167 12.4512 6.66667 12.1216 6.66667 11.7188H5.83334C5.37501 11.7188 5.00001 11.3892 5.00001 10.9863C5.00001 10.5835 5.37501 10.2539 5.83334 10.2539H8.33334V9.52148H5.83334C5.37501 9.52148 5.00001 9.19189 5.00001 8.78906V6.5918C5.00001 6.18896 5.37501 5.85938 5.83334 5.85938H6.66667C6.66667 5.45654 7.04167 5.12695 7.5 5.12695C7.95834 5.12695 8.33334 5.45654 8.33334 5.85938H9.16667C9.625 5.85938 10 6.18896 10 6.5918C10 6.99463 9.625 7.32422 9.16667 7.32422ZM13.0417 11.6455L11.6667 10.437H15L13.625 11.6455C13.4667 11.7847 13.2 11.7847 13.0417 11.6455ZM11.6667 7.32422L13.0417 6.11572C13.2083 5.96924 13.4667 5.96924 13.6333 6.11572L15 7.32422H11.6667Z" fill="#757575"/>
</svg>
