<svg width="80" height="80" viewBox="0 0 80 80" fill="none" xmlns="http://www.w3.org/2000/svg">
<path d="M49.65 20.69C50.532 20.2381 51.5089 20.0024 52.5 20.0024C53.4911 20.0024 54.468 20.2381 55.35 20.69L66.6 26.465C68.69 27.535 70 29.68 70 32.025V47.97C70 50.315 68.69 52.46 66.6 53.53L55.35 59.305C54.468 59.7569 53.4911 59.9926 52.5 59.9926C51.5089 59.9926 50.532 59.7569 49.65 59.305L38.4 53.53C37.3767 53.0057 36.5178 52.2092 35.9179 51.2282C35.3181 50.2473 35.0004 49.1198 35 47.97V32.02C35 29.68 36.31 27.535 38.4 26.465L49.65 20.69ZM42.76 33.875C42.463 34.4678 42.4136 35.1542 42.6227 35.7834C42.8318 36.4126 43.2823 36.9329 43.875 37.23L50 40.29V47.495C50 48.158 50.2634 48.7939 50.7322 49.2628C51.2011 49.7316 51.837 49.995 52.5 49.995C53.163 49.995 53.7989 49.7316 54.2678 49.2628C54.7366 48.7939 55 48.158 55 47.495V40.29L61.12 37.23C61.4161 37.0845 61.6805 36.8818 61.8979 36.6336C62.1153 36.3854 62.2814 36.0967 62.3867 35.784C62.4919 35.4713 62.5343 35.1408 62.5112 34.8117C62.4882 34.4826 62.4002 34.1613 62.2524 33.8663C62.1046 33.5713 61.8998 33.3085 61.65 33.0931C61.4001 32.8776 61.1101 32.7137 60.7966 32.6109C60.4831 32.508 60.1523 32.4683 59.8234 32.4939C59.4944 32.5195 59.1738 32.6099 58.88 32.76L52.5 35.95L46.12 32.76C45.5272 32.463 44.8408 32.4136 44.2116 32.6227C43.5824 32.8318 43.0621 33.2823 42.765 33.875H42.76ZM7.5 37.5C6.83696 37.5 6.20107 37.7634 5.73223 38.2322C5.26339 38.7011 5 39.337 5 40C5 40.663 5.26339 41.2989 5.73223 41.7678C6.20107 42.2366 6.83696 42.5 7.5 42.5H22.5C23.163 42.5 23.7989 42.2366 24.2678 41.7678C24.7366 41.2989 25 40.663 25 40C25 39.337 24.7366 38.7011 24.2678 38.2322C23.7989 37.7634 23.163 37.5 22.5 37.5H7.5ZM10 27.5C10 26.837 10.2634 26.2011 10.7322 25.7322C11.2011 25.2634 11.837 25 12.5 25H27.5C28.163 25 28.7989 25.2634 29.2678 25.7322C29.7366 26.2011 30 26.837 30 27.5C30 28.163 29.7366 28.7989 29.2678 29.2678C28.7989 29.7366 28.163 30 27.5 30H12.5C11.837 30 11.2011 29.7366 10.7322 29.2678C10.2634 28.7989 10 28.163 10 27.5ZM12.5 50C11.837 50 11.2011 50.2634 10.7322 50.7322C10.2634 51.2011 10 51.837 10 52.5C10 53.163 10.2634 53.7989 10.7322 54.2678C11.2011 54.7366 11.837 55 12.5 55H27.5C28.163 55 28.7989 54.7366 29.2678 54.2678C29.7366 53.7989 30 53.163 30 52.5C30 51.837 29.7366 51.2011 29.2678 50.7322C28.7989 50.2634 28.163 50 27.5 50H12.5Z" fill="white"/>
</svg>
